# xmcd
#
# Track frame offsets:
#	182
#	13915
#	27580
#	39985
#	53850
#	63940
#	77117
#	88002
#	101142
#	113245
#	126170
#	138060
#	151310
#	165702
#
# Disc length: 2375 seconds
#
# Revision: 2
# Processed by: cddbd v1.4PL0 Copyright (c) Steve Scherf et al.
# Submitted via: EasyCDDAExtractor 5.1.0
#
DISCID=b509450e
DTITLE=Albert King and Otis Rush - Door To Door
DYEAR=1900
DGENRE=Blues
TTITLE0=Searchin' For A Woman (Albert King)
TTITLE1=Bad Luck (Albert King)
TTITLE2=So Close (Otis Rush)
TTITLE3=Howlin' For My Darling (Albert King)
TTITLE4=I Can't Stop (Otis Rush)
TTITLE5=Won't Be Hangin' Around (Albert King)
TTITLE6=I'm Satisfied (Otis Rush)
TTITLE7=All Your Love (Otis Rush)
TTITLE8=You Know My Love (Otis Rush)
TTITLE9=Merry Way (Albert King)
TTITLE10=Wild Women (Albert King)
TTITLE11=Murder (Albert King)
TTITLE12=So Many Roads (Otis Rush)
TTITLE13=California (Albert King)
EXTD=
EXTT0=
EXTT1=
EXTT2=
EXTT3=
EXTT4=
EXTT5=
EXTT6=
EXTT7=
EXTT8=
EXTT9=
EXTT10=
EXTT11=
EXTT12=
EXTT13=
PLAYORDER=
